<?xml version="1.0" standalone="no"?>
<!DOCTYPE svg PUBLIC "-//W3C//DTD SVG 20010904//EN"
 "http://www.w3.org/TR/2001/REC-SVG-20010904/DTD/svg10.dtd">
<svg version="1.0" xmlns="http://www.w3.org/2000/svg"
 width="772.000000pt" height="772.000000pt" viewBox="0 0 772.000000 772.000000"
 preserveAspectRatio="xMidYMid meet">
<metadata>
Created by potrace 1.11, written by Peter Selinger 2001-2013
</metadata>
<g transform="translate(0.000000,772.000000) scale(0.100000,-0.100000)"
fill="#000000" stroke="none">
<path d="M3459 7626 c-2 -2 -377 -7 -834 -10 -869 -7 -1053 -10 -1062 -20 -3
-3 -13 -1 -23 4 -10 5 -20 6 -24 3 -3 -3 -33 -7 -66 -9 -95 -4 -177 -13 -205
-24 -14 -5 -25 -7 -25 -5 0 5 -68 -37 -104 -65 -29 -22 -147 -143 -174 -179
-13 -17 -39 -61 -58 -98 -32 -60 -35 -74 -33 -137 1 -38 6 -90 11 -115 5 -26
11 -62 14 -81 3 -19 8 -38 10 -41 2 -3 6 -21 9 -40 3 -19 8 -42 11 -51 3 -9 7
-27 9 -40 3 -13 12 -52 21 -87 9 -36 18 -72 20 -80 2 -9 13 -52 24 -96 12 -44
25 -96 29 -115 5 -19 11 -42 14 -50 4 -8 9 -26 11 -40 3 -14 17 -68 31 -120
15 -52 29 -102 31 -110 2 -8 13 -49 24 -90 12 -41 23 -82 24 -90 1 -9 5 -20 8
-25 7 -12 22 -88 19 -94 -2 -2 1 -7 6 -10 8 -6 29 -75 39 -129 3 -13 11 -42
18 -65 24 -71 92 -329 102 -382 2 -11 8 -38 14 -60 32 -120 35 -384 5 -485 -2
-8 -6 -26 -9 -40 -7 -43 -44 -164 -119 -390 -39 -118 -72 -217 -72 -220 -1 -3
-4 -12 -8 -20 -8 -21 -70 -212 -74 -227 -7 -30 -11 -42 -37 -123 -15 -47 -30
-96 -32 -109 -3 -14 -7 -28 -10 -32 -2 -4 -15 -47 -29 -96 -14 -48 -29 -104
-35 -123 -42 -147 -90 -329 -90 -341 0 -8 6 -25 13 -39 7 -14 33 -63 57 -110
25 -47 49 -90 55 -96 5 -6 17 -22 25 -34 22 -34 157 -197 210 -254 99 -108
289 -292 360 -350 41 -33 77 -64 78 -68 2 -5 9 -8 15 -8 7 0 23 -9 37 -20 34
-27 72 -25 100 5 19 20 23 36 24 95 1 39 -1 73 -6 76 -5 3 -6 9 -4 13 3 4 -4
38 -15 76 -11 39 -21 78 -24 88 -2 10 -11 32 -20 49 -8 17 -15 37 -15 45 0 7
-4 21 -9 31 -10 19 -47 99 -81 177 -22 49 -30 68 -128 277 -66 140 -65 137
-46 210 9 35 17 70 19 78 2 8 11 44 20 80 9 36 19 73 21 83 6 24 10 43 29 117
9 36 18 74 20 85 13 55 15 67 21 88 3 12 7 33 10 47 2 14 7 31 10 39 2 8 7 30
10 50 3 20 9 52 14 71 5 19 11 51 14 70 3 19 12 67 20 105 18 88 28 150 40
240 4 28 9 59 11 70 2 11 7 47 10 80 4 33 8 71 11 85 2 14 7 41 10 60 18 115
75 151 194 125 14 -3 36 -7 50 -10 14 -2 54 -11 90 -20 36 -9 74 -17 85 -19
11 -2 36 -6 55 -10 19 -4 49 -9 65 -11 17 -2 30 -4 30 -5 0 -1 14 -3 30 -4 17
-2 59 -7 95 -12 76 -10 312 -11 355 -1 40 9 108 39 117 52 4 5 8 6 8 2 0 -4 6
-3 13 2 6 6 53 41 103 78 108 80 213 173 339 299 107 109 129 133 173 198 34
50 32 67 -5 73 -70 11 -400 30 -658 38 -93 3 -237 7 -320 10 -82 3 -211 7
-285 11 -74 3 -171 7 -215 9 -118 5 -208 14 -216 23 -12 12 -22 82 -35 257
-14 185 -7 718 11 775 2 8 7 33 10 55 12 78 52 139 141 215 46 40 204 154 264
192 117 74 281 150 350 162 14 2 43 9 65 14 22 6 54 13 70 16 17 3 41 7 55 10
33 6 114 17 168 22 23 2 61 6 85 8 63 6 171 15 267 21 47 3 103 8 125 11 22 2
74 7 115 9 41 3 91 7 110 9 19 2 69 7 110 10 70 7 103 11 190 21 19 3 51 6 70
8 60 7 144 18 175 23 17 3 49 7 72 9 24 2 46 6 50 8 5 3 31 7 58 11 127 15
556 113 625 143 8 3 17 7 20 8 3 1 19 7 35 14 17 6 54 21 83 33 29 11 69 35
89 53 29 26 35 37 30 57 -14 54 -65 97 -127 104 -158 20 -209 22 -725 29 -258
4 -474 6 -480 6 -230 -2 -457 -1 -464 3 -4 3 -10 4 -12 2z"/>
<path d="M5297 5264 c-2 -2 -152 -7 -333 -9 -181 -3 -349 -7 -374 -9 -75 -6
-140 -18 -146 -27 -31 -50 127 -275 266 -379 18 -14 38 -30 44 -35 6 -6 34
-26 61 -45 28 -19 52 -37 53 -42 2 -4 8 -8 14 -8 11 0 161 -101 166 -112 2 -5
9 -8 15 -8 7 0 23 -9 37 -20 47 -38 214 -143 257 -161 56 -24 142 -28 223 -11
36 7 73 15 84 17 28 6 378 126 399 137 28 14 67 20 67 9 0 -5 8 -26 17 -47 9
-22 18 -42 19 -46 1 -5 2 -9 4 -10 23 -29 34 -303 16 -396 -3 -15 -8 -52 -11
-82 -3 -30 -7 -66 -9 -80 -2 -14 -7 -47 -11 -73 -4 -27 -8 -56 -9 -65 -4 -22
-18 -111 -21 -137 -2 -11 -7 -45 -11 -75 -11 -66 -10 -299 0 -355 11 -59 35
-171 53 -244 8 -36 16 -72 18 -80 2 -9 13 -68 25 -131 12 -63 24 -122 27 -130
3 -8 6 -31 8 -50 2 -19 6 -55 10 -80 23 -150 28 -436 10 -530 -28 -148 -72
-303 -116 -405 -7 -16 -13 -32 -14 -35 -27 -79 -142 -312 -188 -380 -35 -50
-113 -129 -131 -131 -49 -6 -63 -5 -81 3 -50 23 -201 288 -466 818 -9 19 -19
33 -21 31 -1 -2 -95 26 -208 63 -113 38 -213 70 -223 72 -10 2 -27 6 -37 9
-10 3 -27 8 -37 10 -10 2 -43 11 -73 20 -30 8 -68 18 -85 21 -16 2 -57 11 -90
18 -33 8 -67 14 -75 14 -8 1 -35 5 -60 11 -25 5 -72 13 -105 17 -33 3 -73 8
-90 10 -132 17 -448 21 -650 10 -250 -14 -417 -58 -618 -165 -88 -46 -150 -83
-157 -92 -3 -4 -27 -24 -55 -44 -65 -50 -85 -70 -129 -128 -48 -65 -47 -82 7
-95 50 -13 157 -29 247 -36 282 -24 431 -59 599 -141 138 -67 197 -89 306
-111 29 -6 166 -6 194 0 97 21 205 66 290 120 62 40 184 96 223 103 115 19
275 11 327 -17 9 -5 45 -23 81 -39 117 -55 189 -129 225 -232 32 -88 36 -123
50 -464 6 -135 10 -170 32 -235 51 -156 143 -246 350 -341 118 -55 214 -85
308 -95 54 -6 174 -6 183 0 4 2 27 7 51 11 24 3 55 11 70 17 14 6 28 12 31 12
18 4 96 46 155 85 82 54 214 177 258 241 17 25 34 47 38 50 9 7 104 190 114
221 4 13 9 29 11 34 12 33 63 218 68 246 6 37 13 74 21 117 7 34 11 69 19 152
4 36 9 81 11 100 5 38 15 177 20 305 5 116 6 741 1 800 -15 171 -22 237 -31
275 -3 14 -7 39 -10 55 -6 39 -12 73 -31 165 -9 41 -18 85 -20 98 -3 13 -18
80 -33 150 -16 70 -33 145 -37 167 -4 22 -8 42 -9 45 0 3 -5 32 -10 65 -4 33
-9 69 -11 80 -16 107 -27 1061 -13 1147 3 21 4 40 1 43 -3 2 -6 56 -8 119 -1
63 -5 124 -9 134 -3 11 -8 30 -10 43 -12 63 -92 133 -163 144 -23 3 -56 8 -74
11 -18 3 -140 7 -271 9 -131 2 -241 6 -245 9 -5 3 -14 1 -22 -4 -7 -4 -24 -4
-36 0 -13 5 -25 6 -28 2 -2 -4 -93 -5 -201 -2 -108 3 -202 2 -207 -1 -6 -4
-23 -3 -39 1 -15 5 -29 6 -32 4z"/>
<path d="M3453 4712 c-52 -52 -168 -195 -259 -317 -32 -44 -61 -82 -64 -85 -3
-3 -17 -21 -30 -40 -13 -19 -27 -37 -30 -40 -4 -3 -26 -32 -49 -65 -23 -33
-67 -96 -97 -139 -77 -108 -150 -249 -145 -279 1 -4 -6 -21 -14 -37 -9 -17
-14 -30 -11 -30 17 0 -99 -250 -159 -345 -19 -30 -35 -59 -35 -65 0 -5 -4 -10
-9 -10 -4 0 -21 -28 -35 -62 -70 -160 -31 -203 368 -406 94 -48 173 -90 174
-94 2 -5 9 -8 15 -8 6 0 86 -38 178 -85 123 -62 178 -85 206 -85 21 0 45 0 53
-1 82 -2 663 11 690 15 93 16 148 29 180 43 48 22 118 56 160 78 19 11 37 19
40 20 12 1 235 139 250 155 3 3 23 18 45 35 165 121 289 278 352 445 60 157
27 234 -196 460 -176 178 -287 312 -438 530 -110 158 -177 240 -198 240 -38 0
-130 -173 -141 -265 -1 -11 -3 -20 -4 -20 -3 0 -8 -43 -10 -80 -1 -32 7 -141
16 -190 2 -16 7 -50 10 -75 2 -25 6 -54 8 -65 2 -11 7 -36 10 -55 3 -19 8 -48
12 -65 5 -28 9 -53 17 -100 2 -11 7 -31 10 -45 10 -41 17 -90 23 -175 10 -126
-23 -235 -97 -318 -44 -51 -123 -82 -243 -96 -106 -12 -467 -3 -584 14 -24 4
-50 8 -57 9 -8 1 -18 5 -21 9 -4 4 -15 7 -24 7 -19 0 -50 31 -54 52 -1 7 -5
18 -9 24 -7 13 -2 224 7 264 3 14 10 45 15 70 22 104 72 281 96 335 49 111
130 365 156 487 34 158 30 354 -8 435 -22 47 -35 50 -70 15z"/>
</g>
</svg>
